<svg width="566" height="566" viewBox="0 0 566 566" fill="none" xmlns="http://www.w3.org/2000/svg">
<rect width="566" height="566" rx="107" fill="url(#paint0_linear)"/>
<path d="M241.516 334.65C256.336 334.65 268.35 322.636 268.35 307.816C268.35 292.996 256.336 280.982 241.516 280.982C226.696 280.982 214.683 292.996 214.683 307.816C214.683 322.636 226.696 334.65 241.516 334.65Z" fill="white"/>
<path d="M324.842 334.65C339.661 334.65 351.675 322.636 351.675 307.816C351.675 292.996 339.661 280.982 324.842 280.982C310.022 280.982 298.008 292.996 298.008 307.816C298.008 322.636 310.022 334.65 324.842 334.65Z" fill="white"/>
<path fill-rule="evenodd" clip-rule="evenodd" d="M282.009 146.756C270.678 146.756 261.493 155.942 261.493 167.272C261.493 178.603 270.678 187.788 282.009 187.788H343.589C387.171 187.788 422.5 223.117 422.5 266.698V379.874C422.5 423.455 387.171 458.784 343.589 458.784H221.911C178.329 458.784 143 423.455 143 379.874V282.014C143 271.036 151.9 262.136 162.878 262.136C173.857 262.136 182.756 271.036 182.756 282.014V379.874C182.756 401.498 200.286 419.028 221.911 419.028H343.589C365.214 419.028 382.744 401.498 382.744 379.874V266.698C382.744 245.074 365.214 227.544 343.589 227.544H282.009C248.722 227.544 221.737 200.559 221.737 167.272C221.737 133.985 248.722 107 282.009 107H323.38C334.359 107 343.258 115.9 343.258 126.878C343.258 137.857 334.359 146.756 323.38 146.756H282.009Z" fill="white"/>
<defs>
<linearGradient id="paint0_linear" x1="283" y1="0" x2="283" y2="566" gradientUnits="userSpaceOnUse">
<stop stop-color="#FFF24E"/>
<stop offset="1" stop-color="#FFBD5A"/>
</linearGradient>
</defs>
</svg>
