<?xml version="1.0" encoding="UTF-8"?>
<svg xmlns="http://www.w3.org/2000/svg" xmlns:xlink="http://www.w3.org/1999/xlink" width="100pt" height="100pt" viewBox="0 0 100 100" version="1.1">
<defs>
<linearGradient id="linear0" gradientUnits="userSpaceOnUse" x1="283" y1="0" x2="283" y2="566" gradientTransform="matrix(0.176678,0,0,0.176678,0,0)">
<stop offset="0" style="stop-color:rgb(100%,94.901961%,30.588235%);stop-opacity:1;"/>
<stop offset="1" style="stop-color:rgb(100%,74.117647%,35.294118%);stop-opacity:1;"/>
</linearGradient>
</defs>
<g id="surface1">
<path style=" stroke:none;fill-rule:nonzero;fill:url(#linear0);" d="M 18.90625 0 L 81.09375 0 C 91.535156 0 100 8.464844 100 18.90625 L 100 81.09375 C 100 91.535156 91.535156 100 81.09375 100 L 18.90625 100 C 8.464844 100 0 91.535156 0 81.09375 L 0 18.90625 C 0 8.464844 8.464844 0 18.90625 0 Z M 18.90625 0 "/>
<path style=" stroke:none;fill-rule:nonzero;fill:rgb(100%,100%,100%);fill-opacity:1;" d="M 42.671875 59.125 C 45.289062 59.125 47.410156 57.003906 47.410156 54.382812 C 47.410156 51.765625 45.289062 49.644531 42.671875 49.644531 C 40.050781 49.644531 37.929688 51.765625 37.929688 54.382812 C 37.929688 57.003906 40.050781 59.125 42.671875 59.125 Z M 42.671875 59.125 "/>
<path style=" stroke:none;fill-rule:nonzero;fill:rgb(100%,100%,100%);fill-opacity:1;" d="M 57.394531 59.125 C 60.011719 59.125 62.132812 57.003906 62.132812 54.382812 C 62.132812 51.765625 60.011719 49.644531 57.394531 49.644531 C 54.773438 49.644531 52.652344 51.765625 52.652344 54.382812 C 52.652344 57.003906 54.773438 59.125 57.394531 59.125 Z M 57.394531 59.125 "/>
<path style=" stroke:none;fill-rule:evenodd;fill:rgb(100%,100%,100%);fill-opacity:1;" d="M 49.824219 25.929688 C 47.824219 25.929688 46.199219 27.550781 46.199219 29.554688 C 46.199219 31.554688 47.824219 33.179688 49.824219 33.179688 L 60.703125 33.179688 C 68.40625 33.179688 74.648438 39.421875 74.648438 47.121094 L 74.648438 67.117188 C 74.648438 74.816406 68.40625 81.058594 60.703125 81.058594 L 39.207031 81.058594 C 31.507812 81.058594 25.265625 74.816406 25.265625 67.117188 L 25.265625 49.824219 C 25.265625 47.886719 26.835938 46.3125 28.777344 46.3125 C 30.714844 46.3125 32.289062 47.886719 32.289062 49.824219 L 32.289062 67.117188 C 32.289062 70.9375 35.386719 74.035156 39.207031 74.035156 L 60.703125 74.035156 C 64.527344 74.035156 67.621094 70.9375 67.621094 67.117188 L 67.621094 47.121094 C 67.621094 43.300781 64.527344 40.203125 60.703125 40.203125 L 49.824219 40.203125 C 43.945312 40.203125 39.175781 35.433594 39.175781 29.554688 C 39.175781 23.671875 43.945312 18.90625 49.824219 18.90625 L 57.132812 18.90625 C 59.074219 18.90625 60.644531 20.476562 60.644531 22.417969 C 60.644531 24.355469 59.074219 25.929688 57.132812 25.929688 Z M 49.824219 25.929688 "/>
</g>
</svg>
