<svg id="smiley-grey" xmlns="http://www.w3.org/2000/svg" xmlns:xlink="http://www.w3.org/1999/xlink" viewBox="0 0 100 100"><defs><style>.cls-1,.cls-15,.cls-9{fill:none;}.cls-2{clip-path:url(#clip-path);}.cls-3{isolation:isolate;}.cls-4{clip-path:url(#clip-path-2);}.cls-5{clip-path:url(#clip-path-3);}.cls-6{fill:#e7e7e7;}.cls-7{clip-path:url(#clip-path-4);}.cls-8{fill:#dcdcdc;}.cls-9{stroke:#fff;stroke-linecap:round;stroke-miterlimit:10;stroke-width:4.29px;}.cls-10{clip-path:url(#clip-path-7);}.cls-11{fill:#6e6e6e;}.cls-12{clip-path:url(#clip-path-9);}.cls-13{clip-path:url(#clip-path-11);}.cls-14{fill:#fff;}.cls-15{stroke:#6e6e6e;stroke-linecap:square;stroke-linejoin:round;stroke-width:5.71px;}.cls-16{clip-path:url(#clip-path-14);}.cls-17{clip-path:url(#clip-path-15);}.cls-18{clip-path:url(#clip-path-16);}.cls-19{clip-path:url(#clip-path-17);}.cls-20{clip-path:url(#clip-path-19);}.cls-21{fill:#f5f5f5;}</style><clipPath id="clip-path"><circle class="cls-1" cx="50" cy="50" r="50"/></clipPath><clipPath id="clip-path-2"><rect class="cls-1" x="-41" y="-17" width="189" height="159"/></clipPath><clipPath id="clip-path-3"><rect class="cls-1" width="100" height="100"/></clipPath><clipPath id="clip-path-4"><path class="cls-1" d="M-41,81.36q83.55,26.21,114.54,0T84.66-10.49l63,79.59L21.43,142Z"/></clipPath><clipPath id="clip-path-7"><path class="cls-1" d="M62.05,36.42a5.55,5.55,0,1,1,10.17-3.09,5.65,5.65,0,0,1-.6,2.53,7.16,7.16,0,0,0-9.57.56Z"/></clipPath><clipPath id="clip-path-9"><path class="cls-1" d="M26.65,37.22a5.56,5.56,0,1,1,10.18-3.09,5.45,5.45,0,0,1-.61,2.52,7.15,7.15,0,0,0-9.57.57Z"/></clipPath><clipPath id="clip-path-11"><path class="cls-1" d="M22.86,45.71Q40.93,47.6,50,47.6t27.14-1.89Q75.37,71.44,50,71.43T22.86,45.71Z"/></clipPath><clipPath id="clip-path-14"><path class="cls-1" d="M22.86,45.71H77.14Q75.37,71.44,50,71.43T22.86,45.71Z"/></clipPath><clipPath id="clip-path-15"><rect class="cls-1" x="17" y="40" width="66" height="37"/></clipPath><clipPath id="clip-path-16"><rect class="cls-1" x="22" y="45" width="56" height="27"/></clipPath><clipPath id="clip-path-17"><path class="cls-1" d="M22.86,45.71q17,2.58,27.14,2.59t30-2.59v8.58q-19.76,3.23-30,3.23T22.86,54.29Z"/></clipPath><clipPath id="clip-path-19"><path class="cls-1" d="M22.86,45.71A214,214,0,0,0,50,48q10.11,0,30-2.29v4.15q-19.76,1.57-30,1.57T22.86,49.86Z"/></clipPath></defs><title>smiley-grey-100</title><g class="cls-2"><g class="cls-3"><g class="cls-4"><g class="cls-5"><rect class="cls-6" x="-5" y="-5" width="110" height="110"/></g><g class="cls-7"><g class="cls-5"><rect class="cls-8" x="-40.61" y="12.79" width="179.48" height="110.41" transform="translate(-27.42 33.68) rotate(-30)"/></g></g><g class="cls-5"><path class="cls-9" d="M47.11,5.66A36.74,36.74,0,0,0,16.68,19.87"/></g><g class="cls-10"><g class="cls-5"><rect class="cls-11" x="56.11" y="22.78" width="21.11" height="18.64"/></g></g><g class="cls-12"><g class="cls-5"><rect class="cls-11" x="20.71" y="23.57" width="21.11" height="18.64"/></g></g><g class="cls-13"><g class="cls-5"><rect class="cls-14" x="17.86" y="40.71" width="64.29" height="35.71"/></g></g><g class="cls-5"><path class="cls-15" d="M22.86,45.71Q40.93,47.6,50,47.6t27.14-1.89Q75.37,71.44,50,71.43T22.86,45.71Z"/></g></g></g></g><g class="cls-16"><g class="cls-3"><g class="cls-17"><g class="cls-18"><rect class="cls-11" x="17.86" y="40.71" width="64.29" height="35.71"/></g><g class="cls-19"><g class="cls-18"><rect class="cls-14" x="17.86" y="40.71" width="67.14" height="21.8"/></g></g><g class="cls-20"><g class="cls-18"><rect class="cls-21" x="17.86" y="40.71" width="67.14" height="15.71"/></g></g></g></g></g></svg>